# xmcd CD database file
#
# Track frame offsets:
#	150
#	7500
#	27075
#	45675
#	62925
#	83175
#	104400
#	118725
#	121650
#	138750
#	162375
#	179400
#	194625
#	209625
#	211500
#	231900
#	253125
#	259125
#	269175
#	281850
#	301425
#	303300
#
# Disc length: 4305 seconds
#
# Revision: 2
# Processed by: cddbd v1.5.1PL0 Copyright (c) Steve Scherf et al.
# Submitted via: CDex 1.51
#
DISCID=4610cf16
DTITLE=Chris Thomas King - Dirty South Hip-Hop Blues
DYEAR=2002
DGENRE=Blues
TTITLE0=Cloning Overture
TTITLE1=Welcome to Da Jungle
TTITLE2=Yo Kiss
TTITLE3=Feel Me
TTITLE4=Ghetto Child You're Not Alone
TTITLE5=Da Thrill Is Gone From Here
TTITLE6=Tha Real
TTITLE7=Relevations
TTITLE8=Fruit
TTITLE9=Mississippi Kkkcrossroads
TTITLE10=Revelations
TTITLE11=Hard Time Killin' Floor Blues
TTITLE12=Hard Time Killing Floor Blues
TTITLE13=The Poetry Of Young Bill
TTITLE14=9/11 Interlude
TTITLE15=Gonna Take A Miracle
TTITLE16=Give Me A Chance
TTITLE17=Dirty South Chicken Heads
TTITLE18=Southern Chicks Blues
TTITLE19=Southern Chicks
TTITLE20=N Word Rap
TTITLE21=21st Century Blues (Hidden Track)
EXTD=YEAR: 2002
EXTT0=
EXTT1=
EXTT2=
EXTT3=
EXTT4=
EXTT5=
EXTT6=
EXTT7=
EXTT8=
EXTT9=
EXTT10=
EXTT11=
EXTT12=
EXTT13=
EXTT14=
EXTT15=
EXTT16=
EXTT17=
EXTT18=
EXTT19=
EXTT20=
EXTT21=
PLAYORDER=
